<?xml version="1.0" encoding="UTF-8"?>
<svg id="Layer_1" data-name="Layer 1" xmlns="http://www.w3.org/2000/svg" version="1.1" viewBox="0 0 110 135">
  <defs>
    <style>
      .cls-1 {
        fill: #000;
        stroke-width: 0px;
      }
    </style>
  </defs>
  <path class="cls-1" d="M17.5,35c0-3.5,2.8-6.2,6.2-6.2h62.5c3.5,0,6.2,2.8,6.2,6.2s-2.8,6.2-6.2,6.2H23.8c-3.5,0-6.2-2.8-6.2-6.2ZM86.2,53.8H23.8c-3.5,0-6.2,2.8-6.2,6.2s2.8,6.2,6.2,6.2h62.5c3.5,0,6.2-2.8,6.2-6.2s-2.8-6.2-6.2-6.2ZM86.2,78.8H23.8c-3.5,0-6.2,2.8-6.2,6.2s2.8,6.2,6.2,6.2h62.5c3.5,0,6.2-2.8,6.2-6.2s-2.8-6.2-6.2-6.2Z"/>
</svg>