<?xml version="1.0" encoding="utf-8"?>
<!-- Generator: Adobe Illustrator 28.4.1, SVG Export Plug-In . SVG Version: 6.00 Build 0)  -->
<svg version="1.0" id="Layer_1" xmlns="http://www.w3.org/2000/svg" xmlns:xlink="http://www.w3.org/1999/xlink" x="0px" y="0px"
	 viewBox="0 0 576 792" style="enable-background:new 0 0 576 792;" xml:space="preserve">
<path d="M410.7,481.3c-7.6,0-15.2-0.1-22.7,0c-6,0.1-6-1.3-6.7-6.5c-1-7.3-1.7-14.7-2.5-22.1c-0.7-6.9-1.3-13.8-2.1-20.7
	c-0.6-6-1.3-12-2.1-17.9c-0.1-0.8-1-1.7-1.7-2.2c-4.9-3.5-5.5-9.9,0-13.5c0.7-0.5,1-1.7,1.3-2.7c0.6-2,1-4.1,1.5-6.1
	c0.3-1.3,0.8-2.5,1-3.7c0.6-3.1,1.7-5.9,4.4-7.7c1.6-1,2.2-2,1.5-4c-1.6-4.5,0-9.2,3.8-11.9c1.6-1.1,1.9-2.1,1.3-3.9
	c-1.7-5.1,0.5-10.2,5.4-12.7c1.3-0.7,2.1-1.3,2.1-3c0-4.6,2.8-7.8,7.4-7.9c4.9-0.1,8-2.4,9.7-6.6c2.2-5.4,4.5-4.7,7.2-0.5
	c1.6,2.5,3.4,4.9,4.9,7.4c0.7,1.3,1,2.9,1.4,4.4c0.3,1.6,0.7,2.9,2.4,3.7c4.1,2,6.8,7.6,5.5,12c-0.6,1.9-0.1,3.1,1.2,4.3
	c3.7,3.4,5.1,7.6,3.9,12.6c-0.2,0.7,0.2,2,0.8,2.5c3.3,3.1,5.1,6.7,4.7,11.3c0,0.6,0.1,1.4,0.4,1.9c1.8,2.6,2.3,5.4,2.2,8.5
	c0,0.7,0.7,1.7,1.3,2.1c5.5,3.4,5.3,10.6,0,13.7c-0.7,0.4-1.3,1.4-1.4,2.1c-1.1,8.6-2,17.2-3.1,25.7c-1.1,9.1-2.3,18.3-3.4,27.4
	c-0.4,3.2-0.8,6.4-1,9.6c-0.2,3.6-0.9,4.5-4.6,4.5C426.7,481.3,418.7,481.3,410.7,481.3z M379.8,413.3c0.2,3.3,0.3,6.1,0.6,8.9
	c0.9,8,2,16,2.9,24c1.1,9.1,2.1,18.2,3,27.2c0.2,1.7,0.8,2.3,2.5,2.3c14.5,0,29,0,43.5,0c1.8,0,2.4-0.7,2.5-2.5
	c0.2-3.5,0.6-7.1,1-10.6c0.9-7.7,2-15.3,2.9-23c0.8-6.5,1.7-13,2.4-19.6c0.3-2.2,0.3-4.3,0.4-6.7c-1.7,0-3.1,0-4.5,0
	c-0.8,0-1.6-0.1-2.5-0.2c-1.8-0.2-3-1-2.9-3s1.9-2.2,3.3-2.3c2.6-0.2,5.2,0,7.7-0.1c1.9,0,4.5,0.6,4.4-2.5c-0.1-2.8-2.6-2.3-4.4-2.3
	c-21.3,0-42.6,0-64,0c-0.9,0-2-0.2-2.7,0.3c-0.8,0.6-1.6,1.7-1.6,2.6c0,0.7,1.2,1.5,2,2c0.5,0.3,1.3,0.1,2,0.1c14.6,0,29.2,0,43.7,0
	c2.4,0,4.3,1.2,4,2.7c-0.4,2.1-1.8,3-3.9,2.9c-0.6,0-1.2,0-1.7,0c-12.5,0-25,0-37.5,0C382.1,413.3,381.1,413.3,379.8,413.3z
	 M434.2,368.9c-0.1-4.3-4.8-7.7-9.3-7.1c-5.9,0.8-11.8,1.3-17.7,2c-5.2,0.5-10.3,1-15.5,1.6c-2.7,0.3-5,3.1-4.8,5.4
	c0.3,3.5,1.8,4.6,5.4,4.4c0.7,0,1.3,0,2,0c5.7-0.3,11.4-0.6,17.1-1.1c6.6-0.5,13.1-1.3,19.7-1.9C433.5,372,434.2,371.4,434.2,368.9z
	 M398.7,359.7c1.4-0.2,4-0.7,6.6-1c7-0.6,14-1,21-1.6c0.8-0.1,2.1-1,2.2-1.7c1.2-6-3.3-10.1-9.3-8.8c-1.8,0.4-3.7,0.5-5.6,0.7
	c-5.5,0.7-11.1,1.2-16.6,2.1c-3.1,0.5-5,3.2-4.7,6C392.6,358.4,394.1,359.7,398.7,359.7z M383.2,383.6c2.8,1,5.4,1.9,8,2.8
	c0.3,0.1,0.7-0.4,1-0.5c3.6-1.8,7.2-1.9,10.9,0.1c0.5,0.3,1.4,0.3,2,0c3.6-1.8,7.2-2,10.9-0.1c0.6,0.3,1.6,0.2,2.3,0
	c3.8-1.6,7.5-1.9,11.1,0.5c0.4,0.2,1,0.4,1.4,0.3c2.7-0.8,5.4-1.7,8.3-2.7c0.4-2.9-2.4-6.2-6.3-6c-6.8,0.3-13.5,1-20.3,1.4
	c-7.6,0.5-15.2,0.9-22.7,1.6C387.4,381.1,384.8,380.9,383.2,383.6z M421.7,341c-1.7-3.2-3.1-6-4.5-8.7c-0.7,0.3-1,0.3-1.2,0.5
	c-0.3,0.3-0.6,0.6-0.8,0.9c-3,4-6.7,6.4-11.9,6.2c-0.8,0-1.8,0.4-2.4,1c-0.4,0.3-0.5,1.2-0.3,1.8c0.1,0.4,0.9,0.9,1.3,0.8
	C408.2,342.8,414.6,341.9,421.7,341z M384.4,397.2c0.9,0,1.8-0.1,2.7,0c2,0.2,2.7-0.7,2.5-2.6c-0.1-2.1-2-4.3-4-4.7
	c-2.5-0.5-5,0.8-5.9,2.9c-1.3,2.9-0.4,4.4,2.7,4.4C383.1,397.2,383.8,397.2,384.4,397.2z M394.9,397.2c1.9,0,4.1,0.1,6.2-0.1
	c0.5,0,1.3-0.8,1.4-1.3c0.4-1.9,0.1-3.9-1.7-4.8c-1.5-0.8-3.4-0.9-5.1-1c-0.4,0-1.2,1.4-1.3,2.2
	C394.4,393.8,394.8,395.4,394.9,397.2z M428.6,397c0-1,0.1-1.6,0.1-2.3c0-3.4-3.2-5.8-6.4-4.8c-0.7,0.2-1.6,1-1.6,1.5
	c-0.1,1.8,0.2,3.7,0.4,5.6C423.6,397,426,397,428.6,397z M408.2,397.2c2,0,4,0.2,5.9-0.1c0.8-0.1,1.9-1.5,1.9-2.3
	c0-3.3-3.8-5.9-6.9-4.8c-0.7,0.2-1.3,1.5-1.4,2.3C407.6,393.7,408,395.3,408.2,397.2z M434.5,397.2c1.9,0,3.7,0,5.6,0
	c1.7,0,2.1-1.1,2-2.4c-0.2-3-3.6-5.5-6.5-4.9c-1.4,0.3-2.4,0.9-1.8,2.7C434.2,393.9,434.2,395.4,434.5,397.2z"/>
<path d="M116.3,485.8c0-3.4,0-6.4,0-9.5c83,0,165.8,0,249,0c0,2.8,0.1,5.5-0.1,8.2c0,0.4-0.7,1-1.2,1.2c-0.6,0.2-1.3,0.1-2,0.1
	c-80.9,0-161.8,0-242.6,0C118.5,485.8,117.5,485.8,116.3,485.8z"/>
<path d="M116.2,333.2c0-2.7-0.1-5.2,0.1-7.7c0.1-0.6,1-1.3,1.7-1.7c0.5-0.3,1.3-0.1,2-0.1c80.5,0,161.1,0,241.6,0
	c3.7,0,3.7,0,3.7,3.6c0,1.9,0,3.8,0,5.9C282.2,333.2,199.4,333.2,116.2,333.2z"/>
<path d="M398,428.5c0.3,0.2,0.5,0.3,0.5,0.5c-0.1,0.2-0.5,0.6-1.1,1.4l-0.9,1c-1.4,1.7-2.5,2.9-3.3,3.8s-1.4,1.5-1.8,1.8
	c-0.1,0.1-0.2,0.1-0.4,0.2c-0.1,0.5-0.3,1.6-0.7,3.2l-0.2,0.9c-0.1,0.4-0.2,0.7-0.4,0.8c-0.2,0.1-0.6,0.2-1.1,0.2
	c-0.4,0-0.7-0.1-0.9-0.2c-0.2-0.1-0.3-0.4-0.3-0.8c0-0.2,0-0.3,0.1-0.4l0.8-3.3c0-0.1,0.1-0.2,0.1-0.4c-0.2-0.1-0.4-0.2-0.4-0.3
	c-0.1-0.1-0.1-0.4-0.1-0.7c-0.1-1.1-0.2-1.9-0.2-2.5c0-0.2-0.1-0.8-0.1-1.7c-0.1-1-0.1-1.9-0.1-2.8c0-0.2,0.1-0.4,0.4-0.5
	c0.3-0.1,0.7-0.2,1.1-0.2c0.4,0,0.7,0.1,0.9,0.2c0.2,0.1,0.3,0.4,0.3,0.7l0,5.3v1.3c1.1-1.6,2.4-3.2,3.8-5s2.3-2.6,2.7-2.6
	C397.2,428.3,397.7,428.4,398,428.5z"/>
<path d="M399.2,440.9c-0.8-1.1-1.2-2.5-1.2-4.4c0-1.5,0.3-2.9,1-4.2c0.7-1.3,1.6-2.3,2.7-3.1c1.2-0.8,2.5-1.1,3.9-1.1
	c1.4,0,2.6,0.5,3.4,1.5c0.9,1,1.3,2.4,1.3,4.3c0,1.4-0.3,2.7-1,4.1c-0.6,1.3-1.5,2.4-2.6,3.3s-2.4,1.3-3.8,1.3
	C401.2,442.5,400,442,399.2,440.9z M405.2,439.5c0.7-0.8,1.2-1.7,1.6-2.9c0.4-1.2,0.6-2.4,0.6-3.7c0-0.9-0.2-1.6-0.5-2.1
	s-0.9-0.6-1.7-0.6c-0.9,0-1.7,0.4-2.3,1.1c-0.7,0.8-1.2,1.7-1.6,2.9s-0.6,2.2-0.6,3.3c0,0.6,0.1,1.2,0.3,1.7
	c0.2,0.5,0.5,0.8,0.9,1.1c0.4,0.3,0.8,0.4,1.2,0.4C403.9,440.6,404.5,440.2,405.2,439.5z"/>
<path d="M411.9,430.1c0.1-0.1,0.3-0.2,0.5-0.3c2-1.1,4.1-1.6,6.3-1.6c0.8,0,1.6,0.2,2.3,0.5c0.7,0.3,1.2,0.8,1.5,1.4
	s0.6,1.3,0.6,2.1c0,1.3-0.3,2.4-1,3.3c-0.7,0.9-1.6,1.6-2.7,2c-1.1,0.4-2.3,0.7-3.6,0.7c-0.4,0-0.7,0-0.9,0
	c-0.3,1.3-0.6,2.2-0.7,2.6c-0.1,0.5-0.3,0.9-0.5,1.1c-0.2,0.3-0.6,0.4-1.1,0.4c-0.4,0-0.7-0.1-1-0.2c-0.2-0.1-0.3-0.4-0.3-0.7
	c0-0.2,0-0.3,0.1-0.4l2.5-9.8c-0.7,0.2-1.3,0.5-1.7,0.9c-0.2-0.2-0.3-0.4-0.4-0.7c-0.1-0.3-0.1-0.5-0.1-0.8
	C411.7,430.4,411.8,430.2,411.9,430.1z M416,436.3c0.8,0,1.5-0.1,2.2-0.4c0.7-0.3,1.3-0.7,1.8-1.3c0.5-0.6,0.7-1.3,0.7-2.2
	c0-0.6-0.2-1.1-0.6-1.4c-0.4-0.3-1-0.5-1.8-0.5c-0.4,0-1,0.1-1.6,0.3c-0.6,2.6-1.1,4.4-1.4,5.6C415.4,436.2,415.7,436.3,416,436.3z"
	/>
<path d="M435.2,437.6c-0.5,1.5-1.3,2.7-2.3,3.5c-1,0.9-2.3,1.3-3.7,1.3c-1.1,0-2.1-0.3-2.9-0.8c-0.8-0.5-1.4-1.2-1.9-2.1
	s-0.6-1.9-0.6-3.1c0-1.5,0.3-2.9,1-4.2c0.7-1.3,1.6-2.3,2.7-3.1c1.2-0.8,2.5-1.1,3.9-1.1c0.8,0,1.6,0.1,2.3,0.2
	c0.7,0.1,1.1,0.4,1.1,0.7c0,0.1-0.1,0.3-0.2,0.6c-0.1,0.3-0.2,0.4-0.3,0.5c0.3,0,0.6,0.2,0.8,0.5c0.2,0.3,0.4,0.7,0.6,1.1
	c0.1,0.4,0.2,0.7,0.2,1C436,434.5,435.7,436.2,435.2,437.6z M433,432.1c-0.1-0.2-0.3-0.4-0.5-0.6c0,0-0.1-0.1-0.2-0.2
	c-0.1-0.1-0.1-0.2-0.1-0.2c0-0.1,0-0.1,0.1-0.2c0-0.1,0.1-0.2,0.1-0.2c0-0.1-0.1-0.1-0.4-0.2c-0.3-0.1-0.5-0.1-0.8-0.1
	c-0.9,0-1.7,0.4-2.3,1.1c-0.7,0.7-1.2,1.7-1.6,2.8c-0.4,1.1-0.6,2.2-0.6,3.3c0,0.6,0.1,1.2,0.3,1.7c0.2,0.5,0.5,0.8,0.9,1.1
	c0.4,0.3,0.8,0.4,1.2,0.4c0.7,0,1.4-0.4,2-1.1s1.2-1.7,1.6-2.9c0.4-1.2,0.6-2.4,0.6-3.7C433.2,432.5,433.1,432.3,433,432.1z"/>
<path d="M160.9,349.7c1.1,0.5,1.7,1,1.7,1.6c-0.4,0.5-1.5,2-3.6,4.3l-2.8,3.1c-4.4,5.3-7.9,9.3-10.4,12c-2.5,2.7-4.5,4.6-5.8,5.6
	c-0.3,0.2-0.7,0.4-1.2,0.6c-0.2,1.6-0.9,4.9-2.2,9.9l-0.7,2.9c-0.3,1.3-0.8,2.1-1.4,2.6s-1.8,0.7-3.5,0.7c-1.3,0-2.3-0.2-2.8-0.7
	c-0.6-0.4-0.9-1.2-0.9-2.4c0-0.5,0.1-0.9,0.2-1.4l2.6-10.5c0.1-0.2,0.2-0.6,0.3-1.1c-0.7-0.3-1.2-0.6-1.4-1.1
	c-0.2-0.5-0.3-1.2-0.4-2.3c-0.3-3.3-0.5-5.9-0.7-7.8c0-0.6-0.2-2.4-0.5-5.5c-0.3-3.1-0.4-6-0.4-8.7c0-0.7,0.5-1.2,1.4-1.7
	c0.9-0.5,2.1-0.7,3.6-0.7c1.3,0,2.3,0.2,2.9,0.7c0.6,0.5,0.9,1.2,0.9,2.1l0.1,16.8v4.1c3.6-5,7.6-10.2,12.1-15.7
	c4.5-5.4,7.4-8.2,8.7-8.2C158.4,349,159.8,349.2,160.9,349.7z"/>
<path d="M164.5,388.7c-2.6-3.4-3.9-8-3.9-13.8c0-4.8,1-9.2,3.1-13.3c2.1-4.1,4.9-7.3,8.6-9.7c3.7-2.4,7.8-3.6,12.4-3.6
	c4.5,0,8.1,1.5,10.8,4.6c2.7,3.1,4.1,7.6,4.1,13.7c0,4.3-1,8.6-3,12.8c-2,4.2-4.8,7.7-8.3,10.4s-7.6,4-12.1,4
	C171,393.8,167.1,392.1,164.5,388.7z M183.5,384.3c2.1-2.4,3.7-5.5,5-9.3c1.3-3.8,1.9-7.6,1.9-11.5c0-3-0.5-5.1-1.5-6.5
	s-2.7-2-5.2-2c-2.8,0-5.2,1.2-7.4,3.6c-2.2,2.4-3.8,5.4-5,9c-1.2,3.6-1.8,7.1-1.8,10.5c0,2,0.4,3.7,1.1,5.2c0.7,1.5,1.7,2.6,2.8,3.4
	c1.2,0.8,2.4,1.2,3.7,1.2C179.3,387.9,181.4,386.7,183.5,384.3z"/>
<path d="M237.9,369.3c0.9,0.6,1.4,1.4,1.6,2.3c0.2,0.9,0.3,2.1,0.3,3.5c0,3.7-1,6.9-3,9.8c-2,2.8-4.7,5-7.9,6.6
	c-3.2,1.6-6.7,2.3-10.3,2.3c-5.3,0-9.1-1.5-11.6-4.4c-2.5-2.9-3.7-6.5-3.7-10.8c0-5.2,1-10.1,3-14.6c2-4.6,4.6-8.2,7.9-11
	c3.2-2.7,6.6-4.1,10-4.1c3.2,0,5.9,0.5,8.2,1.4c2.3,1,4,2.2,5.1,3.8c1.1,1.6,1.7,3.2,1.7,4.8c0,1.4-0.4,2.4-1.3,3.2
	c-0.9,0.7-2.2,1.1-3.8,1.1c-1.3,0-2.3-0.5-2.8-1.5c-0.5-1-0.8-2.1-0.8-3.3c0-0.6-0.3-1.2-1-1.8c-0.7-0.6-1.5-0.9-2.5-0.9
	c-2.4,0-4.8,1.1-7.2,3.3c-2.4,2.2-4.4,5.1-5.9,8.9c-1.5,3.8-2.3,7.9-2.3,12.3c0,2.1,0.7,3.7,2.2,5c1.4,1.3,3.4,1.9,5.7,1.9
	c1.7,0,3.6-0.5,5.5-1.6s3.6-2.5,5-4.2c1.4-1.8,2-3.6,2-5.7c-0.4,0-1,0.2-1.6,0.4c-0.8,0.3-1.6,0.5-2.3,0.6c-0.7,0.1-1.6,0.2-2.8,0.2
	c-1.4,0-2.4-0.2-3.1-0.6c-0.7-0.4-1-1-1-2c0-0.7,0.2-1.4,0.5-2.3c0.3-0.9,0.7-1.5,1.2-1.9c2.2-0.6,4-1,5.6-1.3
	c1.6-0.3,3.4-0.4,5.5-0.4C235.7,368.4,237,368.7,237.9,369.3z"/>
<path d="M250.9,349.7c0.5-0.6,1.5-1,3-1c1.7,0,2.9,0.2,3.6,0.7c0.7,0.5,1.1,1.2,1.1,2.2c0,0.6-0.1,1.4-0.4,2.2l-6.1,24.9l-0.1,0.9
	c0,2.5,0.8,4.4,2.4,5.7c1.6,1.2,3.4,1.8,5.5,1.8c2.7,0,4.8-0.5,6.4-1.4s2.6-2.1,3.2-3.5c0.6-1.3,1.2-3.1,1.7-5.2
	c0.2-0.8,1.1-4.7,2.6-11.7c2-8.7,3.1-13.4,3.2-14c0.3-0.9,0.8-1.5,1.6-1.9c0.8-0.4,1.6-0.6,2.6-0.6c1,0,1.8,0.4,2.6,1.2
	c0.8,0.8,1.2,1.8,1.2,3.1v0.3l-5.2,24c-0.8,3.9-2,7-3.5,9.4c-1.5,2.4-3.6,4.2-6.4,5.4s-6.4,1.8-11,1.8c-3.1,0-5.8-0.6-8.1-1.8
	c-2.3-1.2-4.2-2.9-5.5-5.1c-1.3-2.2-2-4.7-2-7.4c0-1.4,0.2-2.9,0.6-4.3l5.5-21.6C249.8,351.6,250.3,350.3,250.9,349.7z"/>
<path d="M315.8,384.3c2.1,2.8,3.9,4.9,5.3,6.1c0.2,0.2,0.5,0.8,1,2s0.7,1.8,0.8,2.1c0,0.4-0.3,0.9-0.7,1.3c-0.4,0.4-1.2,0.7-2.2,0.7
	c-1.8,0-2.9-0.1-3.2-0.3c-2.1-1.5-4.6-4.2-7.6-8c-3-3.8-5.1-7.4-6.6-10.6h-1c-1.2,0-2.1,0-2.7-0.1l-2.8,11.5
	c-0.4,1.4-0.8,2.5-1.4,3.2c-0.6,0.7-1.8,1-3.4,1c-1.4,0-2.4-0.2-3-0.7c-0.6-0.5-1-1.2-1-2.3c0-0.5,0.1-0.9,0.2-1.4l7.6-31.8
	c0-0.4-0.4-1-1-1.8c0-0.1-0.2-0.4-0.5-0.8c-0.3-0.5-0.5-0.9-0.5-1.3c0.1-1.3,0.9-2.3,2.4-3c4.1-0.7,7.8-1,11.1-1
	c4,0,7.2,0.5,9.8,1.6c2.6,1.1,4.5,2.5,5.8,4.3c1.3,1.8,1.9,3.8,1.9,6c0,4-1.2,7.3-3.6,9.9c-2.4,2.7-5.6,4.6-9.8,5.7
	C311.9,378.9,313.7,381.5,315.8,384.3z M302.6,370.4c2.3,0,4.4-0.4,6.3-1.1c1.9-0.7,3.4-1.8,4.5-3.1c1.1-1.3,1.7-2.9,1.7-4.6
	c0-1.8-0.7-3.2-2.2-4.1s-3.5-1.4-5.9-1.4c-1.1,0-2.3,0.1-3.5,0.3c-0.3,1.4-0.8,4.1-1.6,7.8l-1.4,6.1
	C300.8,370.3,301.6,370.4,302.6,370.4z"/>
<path d="M341.7,392c-0.7,0.8-1.9,1.3-3.5,1.3c-1.4,0-2.4-0.2-3-0.7c-0.6-0.5-1-1.2-1-2.3c0-0.5,0.1-0.9,0.2-1.4l8-31.9
	c0,0-1.5,0.2-4.3,0.5c-3.4,0.3-5.5,0.5-6.3,0.7c-0.9-0.3-1.5-0.8-2-1.4c-0.5-0.6-0.7-1.4-0.7-2.3c0-0.7,0.3-1.4,0.8-2
	c0.5-0.6,1.1-1.1,1.8-1.4c2.2-0.4,5.3-0.8,9.2-1.1c4-0.3,9-0.6,15.2-1c3.2-0.1,5.3-0.3,6.4-0.4c0.7,0.3,1.3,0.8,1.8,1.4
	c0.5,0.6,0.8,1.3,0.8,2c0,0.8-0.4,1.6-1.2,2.3c-0.8,0.7-1.7,1.3-2.7,1.6l-11.5,0.6c0.5,0.2,0.7,0.8,0.7,1.8c0,0.5,0,0.9-0.1,1.2
	c-0.7,3.3-1.8,7.7-3.1,13c-1.3,5.3-2.2,8.9-2.6,10.8c-0.3,1.1-0.5,2.1-0.7,3c-0.2,0.9-0.4,1.7-0.6,2.4
	C343,390,342.4,391.2,341.7,392z"/>
<path d="M132.3,414.2c0.5-0.5,1.2-1,2.1-1.4c0.3-0.2,1.4-0.7,3.2-1.6c1.9-0.9,3.6-1.6,5.3-2c0.5-1.2,1.3-2.1,2.4-2.9
	c1.1-0.8,2.5-1.1,4.2-1.1c1,0,1.8,0.2,2.5,0.6c0.6,0.4,1.1,0.9,1.3,1.5c2.2-0.7,4.8-1.1,7.9-1.1c3.8,0,7.1,0.8,9.9,2.4
	c2.8,1.6,4.9,3.8,6.4,6.7c1.4,2.8,2.2,6,2.2,9.5c0,0.7-0.1,1.7-0.3,2.9c-2.4,13.8-12.7,20.6-30.9,20.6c-1.6,0-2.9,0-3.6-0.1
	l-1.1,4.2c-1.2,4.5-1.9,6.9-1.9,7c-0.5,2.1-1.2,3.6-2.2,4.8c-1,1.1-2.5,1.7-4.7,1.7c-1.8,0-3.2-0.3-4-0.9c-0.9-0.6-1.3-1.7-1.3-3.1
	c0-0.6,0.1-1.3,0.3-1.9l10.7-41.2c-3.1,0.9-5.4,2.1-7,3.6c-0.6-0.7-1.2-1.6-1.5-2.8c-0.4-1.1-0.6-2.3-0.6-3.4
	C131.5,415.4,131.8,414.7,132.3,414.2z M149.7,440.1c5.6,0,10-1.1,13.3-3.2s5.4-5.4,6.3-9.8c0.2-1,0.3-1.7,0.3-2.2
	c0-3.3-0.9-5.7-2.7-7.4c-1.8-1.6-4.4-2.4-7.7-2.4c-1.8,0-4,0.4-6.8,1.2c-2.3,9.1-4.2,17-5.6,23.7
	C147.4,440.1,148.4,440.1,149.7,440.1z"/>
<path d="M192.9,407.4c0.7-0.9,2.1-1.3,4-1.3c1.6,0,3,0.2,4.1,0.5c1.1,0.4,1.8,0.9,1.8,1.6c0.3,0.2,0.4,0.6,0.4,1.4
	c0,1.2-0.3,3.1-1,5.6c-0.6,2.5-1.6,5.8-2.8,9.9c-1.4,4.9-2.6,9-3.4,12.4c-0.9,3.4-1.4,6.3-1.7,8.7l-0.1,1.2c0,2.4,0.6,4.3,1.8,5.8
	c1.2,1.5,2.6,2.6,4.3,3.3c1.7,0.7,3.4,1,5,1c3.8,0,6.7-0.9,8.9-2.6c2.2-1.7,3.8-4.1,5-7.1c1.1-3,2.2-7.2,3.2-12.4
	c0.5-2.6,1.4-6.5,2.5-11.5c1.1-5,1.9-8,2.2-9.1c0.5-1.5,0.9-2.7,1-3.5c0.4-1.4,0.7-2.4,1.1-3.1c0.4-0.7,1-1.3,1.8-1.9
	c0.2-0.1,0.6-0.1,1-0.2c0.4-0.1,0.7-0.1,1-0.1c2,0,3.7,0.2,5,0.5c1.3,0.4,2.1,0.8,2.3,1.3c-0.9,3.5-2.1,8.6-3.7,15.5
	c-1.6,6.9-2.7,12.3-3.4,16.3c-3.2,17.9-12.9,26.8-29.1,26.8c-4.1,0-7.8-0.8-11-2.5c-3.2-1.6-5.8-3.9-7.6-6.8
	c-1.9-2.9-2.8-6.2-2.8-9.9c0-1.9,0.3-3.8,0.8-5.8l7.3-28.9C191.5,410,192.2,408.3,192.9,407.4z"/>
<path d="M312,406.8c0.7,0.3,1.1,0.7,1.4,1.2c-1.2,4.8-2.9,11.5-4.9,20.3c-2,8.7-3.4,14.6-4.1,17.6c-1.3,6-2.5,11.3-3.6,16
	c-0.8,3.2-2.1,4.9-3.9,4.9c-5.4,0-8.1-1.3-8.1-3.8c0,0.8,0.7-2,2-8.3c1.4-6.3,2.2-10.1,2.5-11.5l1.9-9.2l-19.6,28.6
	c-0.9,1.2-2.3,1.8-4.1,1.8c-1.5,0-3-0.4-4.3-1.1c-1.3-0.8-1.9-1.5-1.7-2.3c-0.4-2-1.2-5.8-2.3-11.4c-1.1-5.6-2.3-11.5-3.4-17.6
	l-7.4,29.7c-0.4,1.7-1,2.9-1.9,3.4c-0.9,0.6-2.5,0.9-4.8,0.9c-1.8,0-3.2-0.3-4-0.9c-0.9-0.6-1.3-1.7-1.3-3.1c0-0.6,0.1-1.3,0.3-1.9
	l12.1-47.7c0.6-2.6,1.3-4.3,2.1-5.2c0.7-0.9,2.1-1.3,4-1.3c1.6,0,3,0.2,4.2,0.5c1.2,0.4,1.9,0.9,1.9,1.6v0.2l8.1,43.9l28-42.4
	c0.6-1.3,1.2-2.1,2-2.6c0.7-0.4,1.6-0.7,2.5-0.8c0.9-0.1,1.6-0.3,2.1-0.4C309.8,406.2,311.3,406.6,312,406.8z"/>
<path d="M341.5,406.7c5.3,0,9.7,0.7,13.2,2.2c3.5,1.4,6.1,3.4,7.8,5.7c1.7,2.4,2.5,5,2.5,8c0,9.1-2.8,15.7-8.3,19.8
	s-13,6.1-22.4,6.1c-1.6,0-2.9,0-3.6-0.1l-3,11.9c-0.5,1.9-1.1,3.4-1.9,4.3c-0.8,0.9-2.4,1.4-4.6,1.4c-1.8,0-3.2-0.3-4-0.9
	c-0.9-0.6-1.3-1.7-1.4-3.1c0-0.6,0.1-1.3,0.3-1.9l10.1-42.6c-0.1-0.5-0.5-1.3-1.3-2.4c-0.1-0.1-0.3-0.5-0.7-1.1
	c-0.4-0.6-0.6-1.2-0.7-1.8c0.1-1.7,1.2-3.1,3.3-4.1C332.1,407.1,337.1,406.7,341.5,406.7z M335.7,438.7c5,0,9.2-1.3,12.5-3.8
	c3.3-2.6,5-6.4,5-11.5c0-2.5-1-4.3-3-5.6c-2-1.2-4.6-1.9-7.9-1.9c-1.5,0-3,0.1-4.7,0.4c-0.4,2.5-1.3,6.7-2.7,12.7
	c-0.6,2.6-1.3,5.8-2.1,9.5C333.4,438.7,334.4,438.7,335.7,438.7z"/>
</svg>
